<svg id="visual" viewBox="0 0 960 540" width="960" height="540" xmlns="http://www.w3.org/2000/svg" xmlns:xlink="http://www.w3.org/1999/xlink" version="1.1"><rect x="0" y="0" width="960" height="540" fill="#101729"></rect><path d="M0 355L22.8 355.5C45.7 356 91.3 357 137 353C182.7 349 228.3 340 274 334.2C319.7 328.3 365.3 325.7 411.2 328.2C457 330.7 503 338.3 548.8 344.8C594.7 351.3 640.3 356.7 686 357.3C731.7 358 777.3 354 823 354.8C868.7 355.7 914.3 361.3 937.2 364.2L960 367L960 541L937.2 541C914.3 541 868.7 541 823 541C777.3 541 731.7 541 686 541C640.3 541 594.7 541 548.8 541C503 541 457 541 411.2 541C365.3 541 319.7 541 274 541C228.3 541 182.7 541 137 541C91.3 541 45.7 541 22.8 541L0 541Z" fill="#101729"></path><path d="M0 410L22.8 410.5C45.7 411 91.3 412 137 405C182.7 398 228.3 383 274 384.8C319.7 386.7 365.3 405.3 411.2 411.2C457 417 503 410 548.8 401.3C594.7 392.7 640.3 382.3 686 377.7C731.7 373 777.3 374 823 378.8C868.7 383.7 914.3 392.3 937.2 396.7L960 401L960 541L937.2 541C914.3 541 868.7 541 823 541C777.3 541 731.7 541 686 541C640.3 541 594.7 541 548.8 541C503 541 457 541 411.2 541C365.3 541 319.7 541 274 541C228.3 541 182.7 541 137 541C91.3 541 45.7 541 22.8 541L0 541Z" fill="#0a2758"></path><path d="M0 441L22.8 433.8C45.7 426.7 91.3 412.3 137 411.3C182.7 410.3 228.3 422.7 274 431.2C319.7 439.7 365.3 444.3 411.2 438.7C457 433 503 417 548.8 417.3C594.7 417.7 640.3 434.3 686 440.3C731.7 446.3 777.3 441.7 823 433C868.7 424.3 914.3 411.7 937.2 405.3L960 399L960 541L937.2 541C914.3 541 868.7 541 823 541C777.3 541 731.7 541 686 541C640.3 541 594.7 541 548.8 541C503 541 457 541 411.2 541C365.3 541 319.7 541 274 541C228.3 541 182.7 541 137 541C91.3 541 45.7 541 22.8 541L0 541Z" fill="#00368b"></path><path d="M0 441L22.8 441.3C45.7 441.7 91.3 442.3 137 446.2C182.7 450 228.3 457 274 461.8C319.7 466.7 365.3 469.3 411.2 470.3C457 471.3 503 470.7 548.8 466.5C594.7 462.3 640.3 454.7 686 450.2C731.7 445.7 777.3 444.3 823 450.3C868.7 456.3 914.3 469.7 937.2 476.3L960 483L960 541L937.2 541C914.3 541 868.7 541 823 541C777.3 541 731.7 541 686 541C640.3 541 594.7 541 548.8 541C503 541 457 541 411.2 541C365.3 541 319.7 541 274 541C228.3 541 182.7 541 137 541C91.3 541 45.7 541 22.8 541L0 541Z" fill="#0f43bf"></path><path d="M0 494L22.8 493C45.7 492 91.3 490 137 491.7C182.7 493.3 228.3 498.7 274 498C319.7 497.3 365.3 490.7 411.2 490C457 489.3 503 494.7 548.8 494.7C594.7 494.7 640.3 489.3 686 487.2C731.7 485 777.3 486 823 486.2C868.7 486.3 914.3 485.7 937.2 485.3L960 485L960 541L937.2 541C914.3 541 868.7 541 823 541C777.3 541 731.7 541 686 541C640.3 541 594.7 541 548.8 541C503 541 457 541 411.2 541C365.3 541 319.7 541 274 541C228.3 541 182.7 541 137 541C91.3 541 45.7 541 22.8 541L0 541Z" fill="#394cf3"></path></svg>